<?xml version="1.0" encoding="UTF-8" standalone="no"?>
<!-- Created with Inkscape (http://www.inkscape.org/) -->

<svg
   xmlns:osb="http://www.openswatchbook.org/uri/2009/osb"
   xmlns:dc="http://purl.org/dc/elements/1.1/"
   xmlns:cc="http://creativecommons.org/ns#"
   xmlns:rdf="http://www.w3.org/1999/02/22-rdf-syntax-ns#"
   xmlns:svg="http://www.w3.org/2000/svg"
   xmlns="http://www.w3.org/2000/svg"
   xmlns:xlink="http://www.w3.org/1999/xlink"
   xmlns:sodipodi="http://sodipodi.sourceforge.net/DTD/sodipodi-0.dtd"
   xmlns:inkscape="http://www.inkscape.org/namespaces/inkscape"
   width="16px"
   height="16px"
   id="svg2985"
   version="1.1"
   inkscape:version="0.48.4 r9939"
   sodipodi:docname="Punt.svg">
  <defs
     id="defs2987">
    <linearGradient
       id="linearGradient3862"
       osb:paint="gradient">
      <stop
         style="stop-color:#edd400;stop-opacity:1;"
         offset="0"
         id="stop3864" />
      <stop
         style="stop-color:#fce94f;stop-opacity:1;"
         offset="1"
         id="stop3866" />
    </linearGradient>
    <linearGradient
       id="linearGradient3844">
      <stop
         style="stop-color:#c4a000;stop-opacity:0;"
         offset="0"
         id="stop3846" />
      <stop
         style="stop-color:#c4a000;stop-opacity:1;"
         offset="1"
         id="stop3848" />
    </linearGradient>
    <linearGradient
       inkscape:collect="always"
       xlink:href="#linearGradient3862"
       id="linearGradient3868"
       x1="7.0295596"
       y1="3.2523515"
       x2="9.0889435"
       y2="8.1627474"
       gradientUnits="userSpaceOnUse" />
    <linearGradient
       inkscape:collect="always"
       xlink:href="#linearGradient3862"
       id="linearGradient3876"
       x1="3.2829208"
       y1="1.7951423"
       x2="10.673205"
       y2="13.417914"
       gradientUnits="userSpaceOnUse" />
    <radialGradient
       inkscape:collect="always"
       xlink:href="#linearGradient3844"
       id="radialGradient3905"
       cx="8.0978546"
       cy="8.1176977"
       fx="8.0978546"
       fy="8.1176977"
       r="7.7113752"
       gradientUnits="userSpaceOnUse"
       gradientTransform="matrix(0.99999996,0.01752586,-0.01752317,0.99984646,0.14224851,-0.14067547)" />
    <linearGradient
       inkscape:collect="always"
       xlink:href="#linearGradient3862"
       id="linearGradient3907"
       gradientUnits="userSpaceOnUse"
       x1="7.0295596"
       y1="3.2523515"
       x2="8.0978546"
       y2="8.1176977" />
  </defs>
  <sodipodi:namedview
     id="base"
     pagecolor="#ffffff"
     bordercolor="#666666"
     borderopacity="1.0"
     inkscape:pageopacity="0.0"
     inkscape:pageshadow="2"
     inkscape:zoom="22.197802"
     inkscape:cx="6.6034653"
     inkscape:cy="7.0089109"
     inkscape:current-layer="layer1"
     showgrid="true"
     inkscape:grid-bbox="true"
     inkscape:document-units="px"
     inkscape:window-width="1301"
     inkscape:window-height="744"
     inkscape:window-x="65"
     inkscape:window-y="24"
     inkscape:window-maximized="1" />
  <metadata
     id="metadata2990">
    <rdf:RDF>
      <cc:Work
         rdf:about="">
        <dc:format>image/svg+xml</dc:format>
        <dc:type
           rdf:resource="http://purl.org/dc/dcmitype/StillImage" />
        <dc:title />
      </cc:Work>
    </rdf:RDF>
  </metadata>
  <g
     id="layer1"
     inkscape:label="Layer 1"
     inkscape:groupmode="layer">
    <path
       style="fill:url(#linearGradient3907);fill-opacity:1;stroke:url(#radialGradient3905);stroke-width:0.32900000000000001;stroke-miterlimit:4;stroke-opacity:1;stroke-dasharray:none"
       d="M 7.53125 0.375 L 7.53125 3.34375 C 5.4730403 3.6354282 3.8448304 5.2541092 3.5625 7.3125 L 0.625 7.3125 L 0.625 8.5625 L 3.5625 8.5625 C 3.8448304 10.620891 5.4730403 12.239572 7.53125 12.53125 L 7.53125 15.46875 L 8.8125 15.46875 L 8.8125 12.53125 C 10.881131 12.251494 12.501494 10.631131 12.78125 8.5625 L 15.71875 8.5625 L 15.71875 7.3125 L 12.78125 7.3125 C 12.501494 5.2438684 10.881131 3.6235065 8.8125 3.34375 L 8.8125 0.375 L 7.53125 0.375 z M 8.1875 4.90625 C 8.4081029 4.90625 8.6052462 4.9241039 8.8125 4.96875 C 9.9981653 5.2103913 10.914609 6.1268347 11.15625 7.3125 C 11.196524 7.5101109 11.21875 7.7277169 11.21875 7.9375 C 11.21875 8.1472831 11.196524 8.3648891 11.15625 8.5625 C 10.914609 9.7481653 9.9981653 10.664609 8.8125 10.90625 C 8.6052462 10.950896 8.4081029 10.96875 8.1875 10.96875 C 7.9773076 10.96875 7.7618129 10.946399 7.5625 10.90625 C 7.5525767 10.904236 7.5411394 10.908359 7.53125 10.90625 C 6.3544132 10.655268 5.4322118 9.7382848 5.1875 8.5625 C 5.146372 8.3648891 5.125 8.1472831 5.125 7.9375 C 5.125 7.7277169 5.146372 7.5101109 5.1875 7.3125 C 5.4322118 6.1367152 6.3544132 5.219732 7.53125 4.96875 C 7.7385038 4.9241039 7.9668971 4.90625 8.1875 4.90625 z "
       id="path3763" />
    <path
       sodipodi:type="arc"
       style="fill:none;fill-opacity:1;stroke:#8f5902;stroke-opacity:1"
       id="path2993"
       sodipodi:cx="8.1089106"
       sodipodi:cy="7.9811878"
       sodipodi:rx="5.7663369"
       sodipodi:ry="5.4960399"
       d="m 13.875247,7.9811878 a 5.7663369,5.4960399 0 1 1 -11.5326734,0 5.7663369,5.4960399 0 1 1 11.5326734,0 z"
       transform="matrix(0.52698403,0,0,0.55290129,3.9032189,3.5233298)" />
  </g>
</svg>
