/* XPM */
static char * Punt_xpm[] = {
"16 16 56 1",
" 	c None",
".	c #9B2D2B",
"+	c #620101",
"@	c #420000",
"#	c #931918",
"$	c #840000",
"%	c #491A1A",
"&	c #3C2E2E",
"*	c #3B3232",
"=	c #402222",
"-	c #740303",
";	c #9B2B2A",
">	c #860101",
",	c #3A2120",
"'	c #C0BFBC",
")	c #EEEDEA",
"!	c #E1E0DD",
"~	c #4D403F",
"{	c #700404",
"]	c #A44644",
"^	c #541110",
"/	c #B1AEAC",
"(	c #E6E5E2",
"_	c #3F2424",
":	c #8D0808",
"<	c #4F0A0A",
"[	c #332120",
"}	c #ECEBE8",
"|	c #4D4443",
"1	c #4A0000",
"2	c #5D0F0F",
"3	c #351E1E",
"4	c #E9E8E5",
"5	c #4B3F3F",
"6	c #560000",
"7	c #590D0D",
"8	c #9D9896",
"9	c #DCDBD9",
"0	c #412120",
"a	c #8E0D0C",
"b	c #8B0605",
"c	c #3E1D1C",
"d	c #A4A09E",
"e	c #D1D0CE",
"f	c #3F2F2E",
"g	c #770101",
"h	c #890404",
"i	c #561313",
"j	c #362323",
"k	c #332727",
"l	c #451B1A",
"m	c #7E0000",
"n	c #A54845",
"o	c #660E0D",
"p	c #430303",
"q	c #9E3432",
"                ",
"                ",
"                ",
"      .+@#      ",
"     $%&*=-;    ",
"    >,'))!~{    ",
"   ]^/))))(_:   ",
"   <[})))))|1   ",
"   234)))))56   ",
"    78))))90a   ",
"    bcd))efg    ",
"     hijklm     ",
"      nopq      ",
"                ",
"                ",
"                "};
