/* XPM */
static char * Survey_BW_xpm[] = {
"32 32 3 1",
" 	c None",
".	c #FFFFFF",
"+	c #000000",
"                                ",
"                                ",
"                    ++++        ",
"                    +..+        ",
"  ............      ....        ",
"  ............     +....        ",
"  ............     +....+       ",
"  .....+++....   +++....++      ",
"  ....++++....  +++.....+++     ",
"  ...++++++...   ++.....++      ",
"  ...++++++...    +.....++      ",
"  ....++++....    +.....+       ",
"  .....++.....    ......+       ",
"  ............   +.......       ",
"  ............   +.......       ",
"  ............   +.......       ",
"  ............   ........+      ",
"       ..        ++++++++       ",
"       ..          .....        ",
"       ..         ......        ",
"       ..         ...+...       ",
"       ..         ..++ ..       ",
"       ..        .. ++ ...      ",
"       ..        .. ++  ..      ",
"       ..       ..  ++  ...     ",
"       ..       ..  ++   ..     ",
"       ..      ...  ++   ..     ",
"       ..      ..   ++    ..    ",
"       ..      ..   ++    ..    ",
"       ..     ..    ++     ..   ",
"       ..     ..    ++     ..   ",
"       ..    ..     ++      ..  "};
