<?xml version="1.0" encoding="UTF-8" standalone="no"?>
<!-- Created with Inkscape (http://www.inkscape.org/) -->

<svg
   xmlns:osb="http://www.openswatchbook.org/uri/2009/osb"
   xmlns:dc="http://purl.org/dc/elements/1.1/"
   xmlns:cc="http://creativecommons.org/ns#"
   xmlns:rdf="http://www.w3.org/1999/02/22-rdf-syntax-ns#"
   xmlns:svg="http://www.w3.org/2000/svg"
   xmlns="http://www.w3.org/2000/svg"
   xmlns:xlink="http://www.w3.org/1999/xlink"
   xmlns:sodipodi="http://sodipodi.sourceforge.net/DTD/sodipodi-0.dtd"
   xmlns:inkscape="http://www.inkscape.org/namespaces/inkscape"
   inkscape:version="0.48.4 r9939"
   version="1.1"
   id="svg5723"
   height="64px"
   width="64px"
   sodipodi:docname="Nou document 12">
  <sodipodi:namedview
     id="base"
     pagecolor="#ffffff"
     bordercolor="#666666"
     borderopacity="1.0"
     inkscape:pageopacity="0.0"
     inkscape:pageshadow="2"
     inkscape:zoom="7.7781746"
     inkscape:cx="21.734058"
     inkscape:cy="29.071068"
     inkscape:current-layer="layer1"
     showgrid="true"
     inkscape:document-units="px"
     inkscape:grid-bbox="true"
     inkscape:window-width="1301"
     inkscape:window-height="744"
     inkscape:window-x="65"
     inkscape:window-y="24"
     inkscape:window-maximized="1" />
  <defs
     id="defs5725">
    <linearGradient
       inkscape:collect="always"
       xlink:href="#linearGradient3862"
       id="linearGradient3907"
       gradientUnits="userSpaceOnUse"
       x1="7.0295596"
       y1="3.2523515"
       x2="8.0978546"
       y2="8.1176977" />
    <radialGradient
       inkscape:collect="always"
       xlink:href="#linearGradient3844"
       id="radialGradient3905"
       cx="8.0978546"
       cy="8.1176977"
       fx="8.0978546"
       fy="8.1176977"
       r="7.7113752"
       gradientUnits="userSpaceOnUse"
       gradientTransform="matrix(0.99999996,0.01752586,-0.01752317,0.99984646,0.14224851,-0.14067547)" />
    <linearGradient
       inkscape:collect="always"
       xlink:href="#linearGradient3862"
       id="linearGradient3876"
       x1="3.2829208"
       y1="1.7951423"
       x2="10.673205"
       y2="13.417914"
       gradientUnits="userSpaceOnUse" />
    <linearGradient
       inkscape:collect="always"
       xlink:href="#linearGradient3862"
       id="linearGradient3868"
       x1="7.0295596"
       y1="3.2523515"
       x2="9.0889435"
       y2="8.1627474"
       gradientUnits="userSpaceOnUse" />
    <linearGradient
       id="linearGradient3844">
      <stop
         style="stop-color:#c4a000;stop-opacity:0;"
         offset="0"
         id="stop3846" />
      <stop
         style="stop-color:#c4a000;stop-opacity:1;"
         offset="1"
         id="stop3848" />
    </linearGradient>
    <linearGradient
       id="linearGradient3862"
       osb:paint="gradient">
      <stop
         style="stop-color:#edd400;stop-opacity:1;"
         offset="0"
         id="stop3864" />
      <stop
         style="stop-color:#fce94f;stop-opacity:1;"
         offset="1"
         id="stop3866" />
    </linearGradient>
    <linearGradient
       id="linearGradient3862-628"
       osb:paint="gradient">
      <stop
         style="stop-color:#ff0000;stop-opacity:1;"
         offset="0"
         id="stop6723" />
      <stop
         style="stop-color:#ff0000;stop-opacity:1;"
         offset="1"
         id="stop6725" />
    </linearGradient>
    <radialGradient
       inkscape:collect="always"
       xlink:href="#linearGradient3844-961"
       id="radialGradient3905-184"
       cx="8.0978546"
       cy="8.1176977"
       fx="8.0978546"
       fy="8.1176977"
       r="7.7113752"
       gradientUnits="userSpaceOnUse"
       gradientTransform="matrix(0.99999996,0.01752586,-0.01752317,0.99984646,0.14224851,-0.14067547)" />
    <linearGradient
       id="linearGradient3844-961">
      <stop
         style="stop-color:#ff0000;stop-opacity:0;"
         offset="0"
         id="stop6729" />
      <stop
         style="stop-color:#ff0000;stop-opacity:1;"
         offset="1"
         id="stop6731" />
    </linearGradient>
    <radialGradient
       inkscape:collect="always"
       xlink:href="#linearGradient3844-961"
       id="radialGradient6771"
       gradientUnits="userSpaceOnUse"
       gradientTransform="matrix(0.99999996,0.01752586,-0.01752317,0.99984646,0.14224851,-0.14067547)"
       cx="8.0978546"
       cy="8.1176977"
       fx="8.0978546"
       fy="8.1176977"
       r="7.7113752" />
    <radialGradient
       inkscape:collect="always"
       xlink:href="#linearGradient3844-961"
       id="radialGradient6779"
       gradientUnits="userSpaceOnUse"
       gradientTransform="matrix(0.99999996,0.01752586,-0.01752317,0.99984646,0.14224851,-0.14067547)"
       cx="8.0978546"
       cy="8.1176977"
       fx="8.0978546"
       fy="8.1176977"
       r="7.7113752" />
    <radialGradient
       inkscape:collect="always"
       xlink:href="#linearGradient3844-961"
       id="radialGradient6790"
       gradientUnits="userSpaceOnUse"
       gradientTransform="matrix(0.99999996,0.01752586,-0.01752317,0.99984646,0.14224851,-0.14067547)"
       cx="8.0978546"
       cy="8.1176977"
       fx="8.0978546"
       fy="8.1176977"
       r="7.7113752" />
    <radialGradient
       inkscape:collect="always"
       xlink:href="#linearGradient3844-961"
       id="radialGradient6792"
       gradientUnits="userSpaceOnUse"
       gradientTransform="matrix(0.99999996,0.01752586,-0.01752317,0.99984646,0.14224851,-0.14067547)"
       cx="8.0978546"
       cy="8.1176977"
       fx="8.0978546"
       fy="8.1176977"
       r="7.7113752" />
    <radialGradient
       inkscape:collect="always"
       xlink:href="#linearGradient3844-961"
       id="radialGradient6806"
       gradientUnits="userSpaceOnUse"
       gradientTransform="matrix(0.99999996,0.01752586,-0.01752317,0.99984646,0.14224851,-0.14067547)"
       cx="8.0978546"
       cy="8.1176977"
       fx="8.0978546"
       fy="8.1176977"
       r="7.7113752" />
    <radialGradient
       inkscape:collect="always"
       xlink:href="#linearGradient3844-961"
       id="radialGradient6814"
       gradientUnits="userSpaceOnUse"
       gradientTransform="matrix(0.99999996,0.01752586,-0.01752317,0.99984646,0.14224851,-0.14067547)"
       cx="8.0978546"
       cy="8.1176977"
       fx="8.0978546"
       fy="8.1176977"
       r="7.7113752" />
    <radialGradient
       inkscape:collect="always"
       xlink:href="#linearGradient3844-961"
       id="radialGradient6822"
       gradientUnits="userSpaceOnUse"
       gradientTransform="matrix(0.99999996,0.01752586,-0.01752317,0.99984646,0.14224851,-0.14067547)"
       cx="8.0978546"
       cy="8.1176977"
       fx="8.0978546"
       fy="8.1176977"
       r="7.7113752" />
    <radialGradient
       inkscape:collect="always"
       xlink:href="#linearGradient3844-961"
       id="radialGradient6830"
       gradientUnits="userSpaceOnUse"
       gradientTransform="matrix(0.99999996,0.01752586,-0.01752317,0.99984646,0.14224851,-0.14067547)"
       cx="8.0978546"
       cy="8.1176977"
       fx="8.0978546"
       fy="8.1176977"
       r="7.7113752" />
    <radialGradient
       inkscape:collect="always"
       xlink:href="#linearGradient3844-961"
       id="radialGradient6838"
       gradientUnits="userSpaceOnUse"
       gradientTransform="matrix(0.99999996,0.01752586,-0.01752317,0.99984646,0.14224851,-0.14067547)"
       cx="8.0978546"
       cy="8.1176977"
       fx="8.0978546"
       fy="8.1176977"
       r="7.7113752" />
    <radialGradient
       inkscape:collect="always"
       xlink:href="#linearGradient3844-961"
       id="radialGradient6846"
       gradientUnits="userSpaceOnUse"
       gradientTransform="matrix(0.99999996,0.01752586,-0.01752317,0.99984646,0.14224851,-0.14067547)"
       cx="8.0978546"
       cy="8.1176977"
       fx="8.0978546"
       fy="8.1176977"
       r="7.7113752" />
  </defs>
  <metadata
     id="metadata5728">
    <rdf:RDF>
      <cc:Work
         rdf:about="">
        <dc:format>image/svg+xml</dc:format>
        <dc:type
           rdf:resource="http://purl.org/dc/dcmitype/StillImage" />
        <dc:title></dc:title>
      </cc:Work>
    </rdf:RDF>
  </metadata>
  <g
     inkscape:groupmode="layer"
     inkscape:label="Layer 1"
     id="layer1">
    <path
       inkscape:connector-curvature="0"
       id="path5765"
       d="M 5.2711596,15.14535 10.02806,51.143513 28.155707,19.002296 10.02806,51.400643 25.455844,57.057497 28.284272,19.13086 z"
       style="fill:#fce94f;stroke:#8ae234;stroke-width:1px;stroke-linecap:butt;stroke-linejoin:miter;stroke-opacity:1"
       sodipodi:nodetypes="ccccccc" />
    <path
       inkscape:connector-curvature="0"
       id="path5767"
       d="M 58.497015,56.543238 27.875009,18.943888 53.719279,16.681317 61.225186,26.14352 28.381973,19.3206 61.519536,26.340718 58.789177,56.360847 28.285351,19.131354 16.584868,4.9887253 5.2711598,14.88822 28.284272,19.002296 25.712974,57.186062 z"
       style="fill:#fce94f;stroke:#8ae234;stroke-width:1px;stroke-linecap:butt;stroke-linejoin:miter;stroke-opacity:1"
       sodipodi:nodetypes="ccccccccccccc" />
    <g
       id="g6781">
      <g
         style="fill:#cc0000"
         id="g6767"
         transform="matrix(0.31644361,0,0,0.31644361,2.8203819,12.75168)">
        <path
           id="path3763"
           d="m 7.53125,0.375 0,2.96875 C 5.4730403,3.6354282 3.8448304,5.2541092 3.5625,7.3125 l -2.9375,0 0,1.25 2.9375,0 c 0.2823304,2.058391 1.9105403,3.677072 3.96875,3.96875 l 0,2.9375 1.28125,0 0,-2.9375 c 2.068631,-0.279756 3.688994,-1.900119 3.96875,-3.96875 l 2.9375,0 0,-1.25 -2.9375,0 C 12.501494,5.2438684 10.881131,3.6235065 8.8125,3.34375 l 0,-2.96875 -1.28125,0 z M 8.1875,4.90625 c 0.2206029,0 0.4177462,0.017854 0.625,0.0625 1.1856653,0.2416413 2.102109,1.1580847 2.34375,2.34375 0.04027,0.1976109 0.0625,0.4152169 0.0625,0.625 0,0.2097831 -0.02223,0.4273891 -0.0625,0.625 -0.241641,1.1856653 -1.1580847,2.102109 -2.34375,2.34375 -0.2072538,0.04465 -0.4043971,0.0625 -0.625,0.0625 -0.2101924,0 -0.4256871,-0.02235 -0.625,-0.0625 -0.00992,-0.002 -0.021361,0.0021 -0.03125,0 C 6.3544132,10.655268 5.4322118,9.7382848 5.1875,8.5625 5.146372,8.3648891 5.125,8.1472831 5.125,7.9375 5.125,7.7277169 5.146372,7.5101109 5.1875,7.3125 5.4322118,6.1367152 6.3544132,5.219732 7.53125,4.96875 7.7385038,4.9241039 7.9668971,4.90625 8.1875,4.90625 z"
           style="fill:#cc0000;fill-opacity:1;stroke:url(#radialGradient6790);stroke-width:0.329;stroke-miterlimit:4;stroke-opacity:1;stroke-dasharray:none"
           inkscape:connector-curvature="0" />
        <path
           transform="matrix(0.52698403,0,0,0.55290129,3.9032189,3.5233298)"
           d="m 13.875247,7.9811878 c 0,3.0353792 -2.581676,5.4960402 -5.7663364,5.4960402 -3.18466,0 -5.766337,-2.460661 -5.766337,-5.4960402 0,-3.035379 2.581677,-5.4960398 5.766337,-5.4960398 3.1846604,0 5.7663364,2.4606608 5.7663364,5.4960398 z"
           sodipodi:ry="5.4960399"
           sodipodi:rx="5.7663369"
           sodipodi:cy="7.9811878"
           sodipodi:cx="8.1089106"
           id="path2993"
           style="fill:none;stroke:#ff0000;stroke-opacity:1"
           sodipodi:type="arc" />
      </g>
      <g
         style="fill:#cc0000"
         transform="matrix(0.31644361,0,0,0.31644361,6.677328,48.749843)"
         id="g6773">
        <path
           inkscape:connector-curvature="0"
           style="fill:#cc0000;fill-opacity:1;stroke:url(#radialGradient6792);stroke-width:0.329;stroke-miterlimit:4;stroke-opacity:1;stroke-dasharray:none"
           d="m 7.53125,0.375 0,2.96875 C 5.4730403,3.6354282 3.8448304,5.2541092 3.5625,7.3125 l -2.9375,0 0,1.25 2.9375,0 c 0.2823304,2.058391 1.9105403,3.677072 3.96875,3.96875 l 0,2.9375 1.28125,0 0,-2.9375 c 2.068631,-0.279756 3.688994,-1.900119 3.96875,-3.96875 l 2.9375,0 0,-1.25 -2.9375,0 C 12.501494,5.2438684 10.881131,3.6235065 8.8125,3.34375 l 0,-2.96875 -1.28125,0 z M 8.1875,4.90625 c 0.2206029,0 0.4177462,0.017854 0.625,0.0625 1.1856653,0.2416413 2.102109,1.1580847 2.34375,2.34375 0.04027,0.1976109 0.0625,0.4152169 0.0625,0.625 0,0.2097831 -0.02223,0.4273891 -0.0625,0.625 -0.241641,1.1856653 -1.1580847,2.102109 -2.34375,2.34375 -0.2072538,0.04465 -0.4043971,0.0625 -0.625,0.0625 -0.2101924,0 -0.4256871,-0.02235 -0.625,-0.0625 -0.00992,-0.002 -0.021361,0.0021 -0.03125,0 C 6.3544132,10.655268 5.4322118,9.7382848 5.1875,8.5625 5.146372,8.3648891 5.125,8.1472831 5.125,7.9375 5.125,7.7277169 5.146372,7.5101109 5.1875,7.3125 5.4322118,6.1367152 6.3544132,5.219732 7.53125,4.96875 7.7385038,4.9241039 7.9668971,4.90625 8.1875,4.90625 z"
           id="path6775" />
        <path
           sodipodi:type="arc"
           style="fill:none;stroke:#ff0000;stroke-opacity:1"
           id="path6777"
           sodipodi:cx="8.1089106"
           sodipodi:cy="7.9811878"
           sodipodi:rx="5.7663369"
           sodipodi:ry="5.4960399"
           d="m 13.875247,7.9811878 c 0,3.0353792 -2.581676,5.4960402 -5.7663364,5.4960402 -3.18466,0 -5.766337,-2.460661 -5.766337,-5.4960402 0,-3.035379 2.581677,-5.4960398 5.766337,-5.4960398 3.1846604,0 5.7663364,2.4606608 5.7663364,5.4960398 z"
           transform="matrix(0.52698403,0,0,0.55290129,3.9032189,3.5233298)" />
      </g>
      <g
         id="g6800"
         transform="matrix(0.31644361,0,0,0.31644361,23.005066,54.278132)"
         style="fill:#cc0000">
        <path
           id="path6802"
           d="m 7.53125,0.375 0,2.96875 C 5.4730403,3.6354282 3.8448304,5.2541092 3.5625,7.3125 l -2.9375,0 0,1.25 2.9375,0 c 0.2823304,2.058391 1.9105403,3.677072 3.96875,3.96875 l 0,2.9375 1.28125,0 0,-2.9375 c 2.068631,-0.279756 3.688994,-1.900119 3.96875,-3.96875 l 2.9375,0 0,-1.25 -2.9375,0 C 12.501494,5.2438684 10.881131,3.6235065 8.8125,3.34375 l 0,-2.96875 -1.28125,0 z M 8.1875,4.90625 c 0.2206029,0 0.4177462,0.017854 0.625,0.0625 1.1856653,0.2416413 2.102109,1.1580847 2.34375,2.34375 0.04027,0.1976109 0.0625,0.4152169 0.0625,0.625 0,0.2097831 -0.02223,0.4273891 -0.0625,0.625 -0.241641,1.1856653 -1.1580847,2.102109 -2.34375,2.34375 -0.2072538,0.04465 -0.4043971,0.0625 -0.625,0.0625 -0.2101924,0 -0.4256871,-0.02235 -0.625,-0.0625 -0.00992,-0.002 -0.021361,0.0021 -0.03125,0 C 6.3544132,10.655268 5.4322118,9.7382848 5.1875,8.5625 5.146372,8.3648891 5.125,8.1472831 5.125,7.9375 5.125,7.7277169 5.146372,7.5101109 5.1875,7.3125 5.4322118,6.1367152 6.3544132,5.219732 7.53125,4.96875 7.7385038,4.9241039 7.9668971,4.90625 8.1875,4.90625 z"
           style="fill:#cc0000;fill-opacity:1;stroke:url(#radialGradient6806);stroke-width:0.329;stroke-miterlimit:4;stroke-opacity:1;stroke-dasharray:none"
           inkscape:connector-curvature="0" />
        <path
           transform="matrix(0.52698403,0,0,0.55290129,3.9032189,3.5233298)"
           d="m 13.875247,7.9811878 c 0,3.0353792 -2.581676,5.4960402 -5.7663364,5.4960402 -3.18466,0 -5.766337,-2.460661 -5.766337,-5.4960402 0,-3.035379 2.581677,-5.4960398 5.766337,-5.4960398 3.1846604,0 5.7663364,2.4606608 5.7663364,5.4960398 z"
           sodipodi:ry="5.4960399"
           sodipodi:rx="5.7663369"
           sodipodi:cy="7.9811878"
           sodipodi:cx="8.1089106"
           id="path6804"
           style="fill:none;stroke:#ff0000;stroke-opacity:1"
           sodipodi:type="arc" />
      </g>
      <g
         style="fill:#cc0000"
         transform="matrix(0.31644361,0,0,0.31644361,55.789108,53.892437)"
         id="g6808">
        <path
           inkscape:connector-curvature="0"
           style="fill:#cc0000;fill-opacity:1;stroke:url(#radialGradient6814);stroke-width:0.329;stroke-miterlimit:4;stroke-opacity:1;stroke-dasharray:none"
           d="m 7.53125,0.375 0,2.96875 C 5.4730403,3.6354282 3.8448304,5.2541092 3.5625,7.3125 l -2.9375,0 0,1.25 2.9375,0 c 0.2823304,2.058391 1.9105403,3.677072 3.96875,3.96875 l 0,2.9375 1.28125,0 0,-2.9375 c 2.068631,-0.279756 3.688994,-1.900119 3.96875,-3.96875 l 2.9375,0 0,-1.25 -2.9375,0 C 12.501494,5.2438684 10.881131,3.6235065 8.8125,3.34375 l 0,-2.96875 -1.28125,0 z M 8.1875,4.90625 c 0.2206029,0 0.4177462,0.017854 0.625,0.0625 1.1856653,0.2416413 2.102109,1.1580847 2.34375,2.34375 0.04027,0.1976109 0.0625,0.4152169 0.0625,0.625 0,0.2097831 -0.02223,0.4273891 -0.0625,0.625 -0.241641,1.1856653 -1.1580847,2.102109 -2.34375,2.34375 -0.2072538,0.04465 -0.4043971,0.0625 -0.625,0.0625 -0.2101924,0 -0.4256871,-0.02235 -0.625,-0.0625 -0.00992,-0.002 -0.021361,0.0021 -0.03125,0 C 6.3544132,10.655268 5.4322118,9.7382848 5.1875,8.5625 5.146372,8.3648891 5.125,8.1472831 5.125,7.9375 5.125,7.7277169 5.146372,7.5101109 5.1875,7.3125 5.4322118,6.1367152 6.3544132,5.219732 7.53125,4.96875 7.7385038,4.9241039 7.9668971,4.90625 8.1875,4.90625 z"
           id="path6810" />
        <path
           sodipodi:type="arc"
           style="fill:none;stroke:#ff0000;stroke-opacity:1"
           id="path6812"
           sodipodi:cx="8.1089106"
           sodipodi:cy="7.9811878"
           sodipodi:rx="5.7663369"
           sodipodi:ry="5.4960399"
           d="m 13.875247,7.9811878 c 0,3.0353792 -2.581676,5.4960402 -5.7663364,5.4960402 -3.18466,0 -5.766337,-2.460661 -5.766337,-5.4960402 0,-3.035379 2.581677,-5.4960398 5.766337,-5.4960398 3.1846604,0 5.7663364,2.4606608 5.7663364,5.4960398 z"
           transform="matrix(0.52698403,0,0,0.55290129,3.9032189,3.5233298)" />
      </g>
      <g
         id="g6816"
         transform="matrix(0.31644361,0,0,0.31644361,58.874665,23.808258)"
         style="fill:#cc0000">
        <path
           id="path6818"
           d="m 7.53125,0.375 0,2.96875 C 5.4730403,3.6354282 3.8448304,5.2541092 3.5625,7.3125 l -2.9375,0 0,1.25 2.9375,0 c 0.2823304,2.058391 1.9105403,3.677072 3.96875,3.96875 l 0,2.9375 1.28125,0 0,-2.9375 c 2.068631,-0.279756 3.688994,-1.900119 3.96875,-3.96875 l 2.9375,0 0,-1.25 -2.9375,0 C 12.501494,5.2438684 10.881131,3.6235065 8.8125,3.34375 l 0,-2.96875 -1.28125,0 z M 8.1875,4.90625 c 0.2206029,0 0.4177462,0.017854 0.625,0.0625 1.1856653,0.2416413 2.102109,1.1580847 2.34375,2.34375 0.04027,0.1976109 0.0625,0.4152169 0.0625,0.625 0,0.2097831 -0.02223,0.4273891 -0.0625,0.625 -0.241641,1.1856653 -1.1580847,2.102109 -2.34375,2.34375 -0.2072538,0.04465 -0.4043971,0.0625 -0.625,0.0625 -0.2101924,0 -0.4256871,-0.02235 -0.625,-0.0625 -0.00992,-0.002 -0.021361,0.0021 -0.03125,0 C 6.3544132,10.655268 5.4322118,9.7382848 5.1875,8.5625 5.146372,8.3648891 5.125,8.1472831 5.125,7.9375 5.125,7.7277169 5.146372,7.5101109 5.1875,7.3125 5.4322118,6.1367152 6.3544132,5.219732 7.53125,4.96875 7.7385038,4.9241039 7.9668971,4.90625 8.1875,4.90625 z"
           style="fill:#cc0000;fill-opacity:1;stroke:url(#radialGradient6822);stroke-width:0.329;stroke-miterlimit:4;stroke-opacity:1;stroke-dasharray:none"
           inkscape:connector-curvature="0" />
        <path
           transform="matrix(0.52698403,0,0,0.55290129,3.9032189,3.5233298)"
           d="m 13.875247,7.9811878 c 0,3.0353792 -2.581676,5.4960402 -5.7663364,5.4960402 -3.18466,0 -5.766337,-2.460661 -5.766337,-5.4960402 0,-3.035379 2.581677,-5.4960398 5.766337,-5.4960398 3.1846604,0 5.7663364,2.4606608 5.7663364,5.4960398 z"
           sodipodi:ry="5.4960399"
           sodipodi:rx="5.7663369"
           sodipodi:cy="7.9811878"
           sodipodi:cx="8.1089106"
           id="path6820"
           style="fill:none;stroke:#ff0000;stroke-opacity:1"
           sodipodi:type="arc" />
      </g>
      <g
         style="fill:#cc0000"
         transform="matrix(0.31644361,0,0,0.31644361,51.160773,14.294458)"
         id="g6824">
        <path
           inkscape:connector-curvature="0"
           style="fill:#cc0000;fill-opacity:1;stroke:url(#radialGradient6830);stroke-width:0.329;stroke-miterlimit:4;stroke-opacity:1;stroke-dasharray:none"
           d="m 7.53125,0.375 0,2.96875 C 5.4730403,3.6354282 3.8448304,5.2541092 3.5625,7.3125 l -2.9375,0 0,1.25 2.9375,0 c 0.2823304,2.058391 1.9105403,3.677072 3.96875,3.96875 l 0,2.9375 1.28125,0 0,-2.9375 c 2.068631,-0.279756 3.688994,-1.900119 3.96875,-3.96875 l 2.9375,0 0,-1.25 -2.9375,0 C 12.501494,5.2438684 10.881131,3.6235065 8.8125,3.34375 l 0,-2.96875 -1.28125,0 z M 8.1875,4.90625 c 0.2206029,0 0.4177462,0.017854 0.625,0.0625 1.1856653,0.2416413 2.102109,1.1580847 2.34375,2.34375 0.04027,0.1976109 0.0625,0.4152169 0.0625,0.625 0,0.2097831 -0.02223,0.4273891 -0.0625,0.625 -0.241641,1.1856653 -1.1580847,2.102109 -2.34375,2.34375 -0.2072538,0.04465 -0.4043971,0.0625 -0.625,0.0625 -0.2101924,0 -0.4256871,-0.02235 -0.625,-0.0625 -0.00992,-0.002 -0.021361,0.0021 -0.03125,0 C 6.3544132,10.655268 5.4322118,9.7382848 5.1875,8.5625 5.146372,8.3648891 5.125,8.1472831 5.125,7.9375 5.125,7.7277169 5.146372,7.5101109 5.1875,7.3125 5.4322118,6.1367152 6.3544132,5.219732 7.53125,4.96875 7.7385038,4.9241039 7.9668971,4.90625 8.1875,4.90625 z"
           id="path6826" />
        <path
           sodipodi:type="arc"
           style="fill:none;stroke:#ff0000;stroke-opacity:1"
           id="path6828"
           sodipodi:cx="8.1089106"
           sodipodi:cy="7.9811878"
           sodipodi:rx="5.7663369"
           sodipodi:ry="5.4960399"
           d="m 13.875247,7.9811878 c 0,3.0353792 -2.581676,5.4960402 -5.7663364,5.4960402 -3.18466,0 -5.766337,-2.460661 -5.766337,-5.4960402 0,-3.035379 2.581677,-5.4960398 5.766337,-5.4960398 3.1846604,0 5.7663364,2.4606608 5.7663364,5.4960398 z"
           transform="matrix(0.52698403,0,0,0.55290129,3.9032189,3.5233298)" />
      </g>
      <g
         id="g6832"
         transform="matrix(0.31644361,0,0,0.31644361,25.576364,16.737191)"
         style="fill:#cc0000">
        <path
           id="path6834"
           d="m 7.53125,0.375 0,2.96875 C 5.4730403,3.6354282 3.8448304,5.2541092 3.5625,7.3125 l -2.9375,0 0,1.25 2.9375,0 c 0.2823304,2.058391 1.9105403,3.677072 3.96875,3.96875 l 0,2.9375 1.28125,0 0,-2.9375 c 2.068631,-0.279756 3.688994,-1.900119 3.96875,-3.96875 l 2.9375,0 0,-1.25 -2.9375,0 C 12.501494,5.2438684 10.881131,3.6235065 8.8125,3.34375 l 0,-2.96875 -1.28125,0 z M 8.1875,4.90625 c 0.2206029,0 0.4177462,0.017854 0.625,0.0625 1.1856653,0.2416413 2.102109,1.1580847 2.34375,2.34375 0.04027,0.1976109 0.0625,0.4152169 0.0625,0.625 0,0.2097831 -0.02223,0.4273891 -0.0625,0.625 -0.241641,1.1856653 -1.1580847,2.102109 -2.34375,2.34375 -0.2072538,0.04465 -0.4043971,0.0625 -0.625,0.0625 -0.2101924,0 -0.4256871,-0.02235 -0.625,-0.0625 -0.00992,-0.002 -0.021361,0.0021 -0.03125,0 C 6.3544132,10.655268 5.4322118,9.7382848 5.1875,8.5625 5.146372,8.3648891 5.125,8.1472831 5.125,7.9375 5.125,7.7277169 5.146372,7.5101109 5.1875,7.3125 5.4322118,6.1367152 6.3544132,5.219732 7.53125,4.96875 7.7385038,4.9241039 7.9668971,4.90625 8.1875,4.90625 z"
           style="fill:#cc0000;fill-opacity:1;stroke:url(#radialGradient6838);stroke-width:0.329;stroke-miterlimit:4;stroke-opacity:1;stroke-dasharray:none"
           inkscape:connector-curvature="0" />
        <path
           transform="matrix(0.52698403,0,0,0.55290129,3.9032189,3.5233298)"
           d="m 13.875247,7.9811878 c 0,3.0353792 -2.581676,5.4960402 -5.7663364,5.4960402 -3.18466,0 -5.766337,-2.460661 -5.766337,-5.4960402 0,-3.035379 2.581677,-5.4960398 5.766337,-5.4960398 3.1846604,0 5.7663364,2.4606608 5.7663364,5.4960398 z"
           sodipodi:ry="5.4960399"
           sodipodi:rx="5.7663369"
           sodipodi:cy="7.9811878"
           sodipodi:cx="8.1089106"
           id="path6836"
           style="fill:none;stroke:#ff0000;stroke-opacity:1"
           sodipodi:type="arc" />
      </g>
      <g
         style="fill:#cc0000"
         transform="matrix(0.31644361,0,0,0.31644361,13.748396,2.8521851)"
         id="g6840">
        <path
           inkscape:connector-curvature="0"
           style="fill:#cc0000;fill-opacity:1;stroke:url(#radialGradient6846);stroke-width:0.329;stroke-miterlimit:4;stroke-opacity:1;stroke-dasharray:none"
           d="m 7.53125,0.375 0,2.96875 C 5.4730403,3.6354282 3.8448304,5.2541092 3.5625,7.3125 l -2.9375,0 0,1.25 2.9375,0 c 0.2823304,2.058391 1.9105403,3.677072 3.96875,3.96875 l 0,2.9375 1.28125,0 0,-2.9375 c 2.068631,-0.279756 3.688994,-1.900119 3.96875,-3.96875 l 2.9375,0 0,-1.25 -2.9375,0 C 12.501494,5.2438684 10.881131,3.6235065 8.8125,3.34375 l 0,-2.96875 -1.28125,0 z M 8.1875,4.90625 c 0.2206029,0 0.4177462,0.017854 0.625,0.0625 1.1856653,0.2416413 2.102109,1.1580847 2.34375,2.34375 0.04027,0.1976109 0.0625,0.4152169 0.0625,0.625 0,0.2097831 -0.02223,0.4273891 -0.0625,0.625 -0.241641,1.1856653 -1.1580847,2.102109 -2.34375,2.34375 -0.2072538,0.04465 -0.4043971,0.0625 -0.625,0.0625 -0.2101924,0 -0.4256871,-0.02235 -0.625,-0.0625 -0.00992,-0.002 -0.021361,0.0021 -0.03125,0 C 6.3544132,10.655268 5.4322118,9.7382848 5.1875,8.5625 5.146372,8.3648891 5.125,8.1472831 5.125,7.9375 5.125,7.7277169 5.146372,7.5101109 5.1875,7.3125 5.4322118,6.1367152 6.3544132,5.219732 7.53125,4.96875 7.7385038,4.9241039 7.9668971,4.90625 8.1875,4.90625 z"
           id="path6842" />
        <path
           sodipodi:type="arc"
           style="fill:none;stroke:#ff0000;stroke-opacity:1"
           id="path6844"
           sodipodi:cx="8.1089106"
           sodipodi:cy="7.9811878"
           sodipodi:rx="5.7663369"
           sodipodi:ry="5.4960399"
           d="m 13.875247,7.9811878 c 0,3.0353792 -2.581676,5.4960402 -5.7663364,5.4960402 -3.18466,0 -5.766337,-2.460661 -5.766337,-5.4960402 0,-3.035379 2.581677,-5.4960398 5.766337,-5.4960398 3.1846604,0 5.7663364,2.4606608 5.7663364,5.4960398 z"
           transform="matrix(0.52698403,0,0,0.55290129,3.9032189,3.5233298)" />
      </g>
    </g>
  </g>
</svg>
