/* XPM */
static char * Survey_xpm[] = {
"30 30 122 2",
"  	c None",
". 	c #000000",
"+ 	c #090908",
"@ 	c #0D0D0C",
"# 	c #242622",
"$ 	c #31332E",
"% 	c #FB0000",
"& 	c #FC0000",
"* 	c #FD0000",
"= 	c #373A33",
"- 	c #383B36",
"; 	c #3A3E3A",
"> 	c #3C403A",
", 	c #3F433D",
"' 	c #40433E",
") 	c #444741",
"! 	c #464943",
"~ 	c #4B4F49",
"{ 	c #4F534C",
"] 	c #50554D",
"^ 	c #535850",
"/ 	c #545950",
"( 	c #565D54",
"_ 	c #575D54",
": 	c #FC3A1A",
"< 	c #5E655B",
"[ 	c #B85400",
"} 	c #B95400",
"| 	c #BA5500",
"1 	c #BC5700",
"2 	c #63685F",
"3 	c #6C6970",
"4 	c #6D696F",
"5 	c #71696E",
"6 	c #676E64",
"7 	c #696F65",
"8 	c #7D6968",
"9 	c #836965",
"0 	c #92685E",
"a 	c #FE4E22",
"b 	c #8F6960",
"c 	c #8F7313",
"d 	c #8D741B",
"e 	c #6F766B",
"f 	c #A86855",
"g 	c #937615",
"h 	c #B16851",
"i 	c #FD5727",
"j 	c #E46839",
"k 	c #9F8017",
"l 	c #E86738",
"m 	c #F8652D",
"n 	c #F9652D",
"o 	c #CF7700",
"p 	c #7C8478",
"q 	c #FB662D",
"r 	c #FC662D",
"s 	c #FD672E",
"t 	c #FD682F",
"u 	c #FD6930",
"v 	c #FD6931",
"w 	c #FD6B33",
"x 	c #FD6B34",
"y 	c #D87450",
"z 	c #FD6D36",
"A 	c #FD6E38",
"B 	c #FD6F39",
"C 	c #D47D5D",
"D 	c #D98500",
"E 	c #FD7542",
"F 	c #FC7A49",
"G 	c #8F988B",
"H 	c #FD7E4D",
"I 	c #97A092",
"J 	c #98A192",
"K 	c #FD8D62",
"L 	c #F98F66",
"M 	c #F2926D",
"N 	c #BC9E96",
"O 	c #9EA898",
"P 	c #FE9168",
"Q 	c #FC936B",
"R 	c #E9987A",
"S 	c #A2AD9D",
"T 	c #A4AE9E",
"U 	c #F1AB00",
"V 	c #A9B4A3",
"W 	c #FE9F7B",
"X 	c #AEB9A8",
"Y 	c #F8B800",
"Z 	c #FEAA8A",
"` 	c #FFC100",
" .	c #FFC200",
"..	c #FFC300",
"+.	c #FEB69B",
"@.	c #FEB89D",
"#.	c #FEBAA0",
"$.	c #FEBCA2",
"%.	c #FEBCA3",
"&.	c #FEBDA5",
"*.	c #FEC0A9",
"=.	c #DDCAC6",
"-.	c #FEC3AC",
";.	c #FEC5AF",
">.	c #FEC7B2",
",.	c #E7D1CB",
"'.	c #FECEBB",
").	c #FED5C5",
"!.	c #FED6C7",
"~.	c #FFD9CB",
"{.	c #FFDBCD",
"].	c #FFDCCF",
"^.	c #FFDED1",
"/.	c #FFDFD3",
"(.	c #FFE1D5",
"_.	c #FFE2D7",
":.	c #FFEFEA",
"<.	c #FFF2ED",
"[.	c #FFF8F6",
"}.	c #FFFEFD",
"|.	c #FFFEFE",
"1.	c #FFFFFF",
"                                                            ",
"                                                            ",
"                                      ~ e e $               ",
"    s s s s s s s s s s s             S X X !               ",
"    s v +.}.1.1.1.1.).E s           ' X X X ]               ",
"    A s s K :.1.[.W s s B           / X X X _               ",
"    -.z s s y N C s s z >.        . 6 X X X ^ .             ",
"    ].*.s h 3 3 3 f s ;./.    . . @ O X X X < . .           ",
"    ^.1.M 4 3 3 3 3 R 1.^.    . . # X X X X p . .           ",
"    /.1.,.3 3 3 3 3 =.1.].      . , X X X X I + .           ",
"    (.|.Q 9 3 3 3 8 L }.{.        7 X X X X V               ",
"    _.#.s l 0 5 b j s $.~.        J X X X X X =             ",
"    *.v s w &.<.P s s x %.      - X X X X X X )             ",
"    B s H (.1.1.|.@.u s A       { X X X X X X {             ",
"    r F '.!.!.!.!.!.Z t s       2 X X X X X X (             ",
"    m n q q i : a s s s s       G X X X X T S _             ",
"              * *               ; > d g k c                 ",
"              * *                    .U Y  .                ",
"              & *                  . .o D  . .              ",
"              & *                  . .| 1  . .              ",
"              % %                . .  } }    . .            ",
"              % %                . .  } }    . .            ",
"              % %             `  . .  } }      . .          ",
"              % %              . .    [ }      . .          ",
"              & *              . .    } }      . ...        ",
"              & *           .. .      } }        . .        ",
"              * *            . .      } }       .. .`       ",
"              * *          . .        } }          . .      ",
"              * *          . .        } }          . . .    ",
"              * *       `  .          } }            . .    "};
